<svg width="360" height="360" viewBox="0 0 360 360" fill="none" xmlns="http://www.w3.org/2000/svg">
  <rect width="360" height="360" rx="40" fill="#FCF3EA"/>
  <path d="M96 202C121 203 141 193 158 176L187 146L220 167L245 205L292 215C307 218 318 231 318 246V253H84L70 230L96 202Z" fill="#131313"/>
  <path d="M79 253H318V268C318 283 306 295 291 295H110C96 295 84 287 79 274V253Z" fill="#F15A34"/>
  <path d="M103 212L135 205L176 221H246" stroke="#FAE6D6" stroke-width="10" stroke-linecap="round"/>
  <path d="M174 160L213 182" stroke="#F15A34" stroke-width="12" stroke-linecap="round"/>
  <path d="M140 184L201 216" stroke="#2A2A2A" stroke-width="10" stroke-linecap="round"/>
  <path d="M119 226H152" stroke="#FAE6D6" stroke-width="9" stroke-linecap="round"/>
  <path d="M191 146L202 129C208 120 220 117 229 123L255 139" stroke="#262626" stroke-width="10" stroke-linecap="round"/>
  <circle cx="265" cy="253" r="14" fill="#1A1A1A"/>
  <circle cx="141" cy="253" r="14" fill="#1A1A1A"/>
</svg>
